<svg width="187" height="34" viewBox="0 0 187 34" fill="none" xmlns="http://www.w3.org/2000/svg">
<path d="M19.3779 22.3828H68.789L74.4312 33.0758H25.0201L19.3779 22.3828Z" fill="#60FF7B"/>
<path d="M8.12793 0.978516H57.539L63.1812 11.6715H13.7701L8.12793 0.978516Z" fill="#60FF7B"/>
<path d="M0.985352 11.6836H13.7223L19.3645 22.3766H6.62753L0.985352 11.6836Z" fill="#60FF7B"/>
<path d="M6.64511 0.978516H8.09766L13.7398 11.6715H1.00293L6.64511 0.978516Z" fill="#60FF7B"/>
<path d="M87.708 28.241C85.8421 28.241 84.1495 27.803 82.6301 26.9268C81.1373 26.0506 79.9511 24.8691 79.0715 23.3823C78.2185 21.8689 77.792 20.1962 77.792 18.3642C77.792 16.5056 78.2185 14.8329 79.0715 13.3461C79.9511 11.8592 81.1373 10.691 82.6301 9.84139C84.1495 8.96522 85.8421 8.52713 87.708 8.52713C89.1741 8.52713 90.5336 8.80591 91.7864 9.36348C93.0392 9.89449 94.1188 10.6777 95.0251 11.7132L92.6261 14.1028C92.0396 13.4125 91.3199 12.8947 90.4669 12.5496C89.6406 12.1779 88.721 11.992 87.708 11.992C86.5085 11.992 85.4423 12.2708 84.5093 12.8283C83.5763 13.3594 82.8433 14.1028 82.3102 15.0586C81.7771 16.0144 81.5105 17.1163 81.5105 18.3642C81.5105 19.6121 81.7771 20.7139 82.3102 21.6697C82.8433 22.6256 83.5763 23.3823 84.5093 23.9398C85.4423 24.4974 86.5085 24.7762 87.708 24.7762C88.721 24.7762 89.6406 24.6036 90.4669 24.2584C91.3199 23.8867 92.053 23.3557 92.666 22.6654L95.0251 25.055C94.1455 26.0639 93.0659 26.8471 91.7864 27.4047C90.5336 27.9623 89.1741 28.241 87.708 28.241Z" fill="black"/>
<path d="M106.2 28.241C104.308 28.241 102.602 27.8162 101.082 26.9666C99.563 26.0904 98.3635 24.9089 97.4838 23.4221C96.6042 21.9352 96.1643 20.2493 96.1643 18.3642C96.1643 16.5056 96.5908 14.8329 97.4438 13.3461C98.3235 11.8592 99.4963 10.691 100.962 9.84139C102.455 8.96522 104.121 8.52713 105.96 8.52713C107.72 8.52713 109.266 8.92539 110.599 9.72191C111.958 10.5184 113.011 11.6203 113.757 13.0275C114.53 14.4347 114.917 16.0277 114.917 17.8066C114.917 18.0721 114.904 18.3642 114.877 18.6828C114.85 18.9748 114.797 19.32 114.717 19.7183H98.6833V16.7313H112.798L111.478 17.8863C111.478 16.6118 111.252 15.5365 110.798 14.6603C110.345 13.7576 109.706 13.0673 108.879 12.5894C108.053 12.0849 107.053 11.8327 105.88 11.8327C104.654 11.8327 103.575 12.0982 102.642 12.6292C101.709 13.1602 100.989 13.9037 100.483 14.8595C99.9761 15.8153 99.7229 16.9437 99.7229 18.2447C99.7229 19.5722 99.9895 20.7405 100.523 21.7494C101.056 22.7318 101.815 23.5017 102.802 24.0593C103.788 24.5903 104.921 24.8558 106.2 24.8558C107.267 24.8558 108.24 24.67 109.119 24.2983C110.025 23.9265 110.798 23.369 111.438 22.6256L113.757 24.9753C112.851 26.0373 111.731 26.8471 110.399 27.4047C109.092 27.9623 107.693 28.241 106.2 28.241Z" fill="black"/>
<path d="M131.476 27.8428V16.811C131.476 15.3772 131.022 14.1957 130.116 13.2664C129.21 12.3372 128.037 11.8725 126.597 11.8725C125.638 11.8725 124.785 12.0849 124.038 12.5097C123.292 12.9346 122.706 13.5187 122.279 14.2621C121.853 15.0055 121.639 15.8551 121.639 16.811L120.16 15.9746C120.16 14.5409 120.48 13.2664 121.12 12.1513C121.759 11.0362 122.652 10.16 123.799 9.52278C124.945 8.85901 126.238 8.52713 127.677 8.52713C129.116 8.52713 130.383 8.88556 131.476 9.60243C132.595 10.3193 133.475 11.2619 134.114 12.4301C134.754 13.5718 135.074 14.7931 135.074 16.0941V27.8428H131.476ZM118.041 27.8428V8.92539H121.639V27.8428H118.041Z" fill="black"/>
<path d="M141.831 27.8428V1H145.43V27.8428H141.831ZM137.153 12.1911V8.92539H150.108V12.1911H137.153Z" fill="black"/>
<path d="M152.833 27.8428V8.92539H156.432V27.8428H152.833ZM156.432 17.0499L155.072 16.4525C155.072 14.0364 155.632 12.1115 156.752 10.6777C157.871 9.244 159.484 8.52713 161.59 8.52713C162.549 8.52713 163.416 8.69971 164.189 9.04487C164.962 9.36348 165.681 9.90777 166.348 10.6777L163.989 13.1071C163.589 12.6823 163.149 12.377 162.669 12.1911C162.189 12.0053 161.63 11.9123 160.99 11.9123C159.657 11.9123 158.564 12.3372 157.711 13.1868C156.858 14.0364 156.432 15.3241 156.432 17.0499Z" fill="black"/>
<path d="M176.134 28.241C174.268 28.241 172.588 27.803 171.096 26.9268C169.603 26.0506 168.417 24.8691 167.537 23.3823C166.657 21.8689 166.218 20.1829 166.218 18.3243C166.218 16.4923 166.657 14.8462 167.537 13.3859C168.417 11.8991 169.603 10.7176 171.096 9.84139C172.588 8.96522 174.268 8.52713 176.134 8.52713C177.973 8.52713 179.639 8.96522 181.132 9.84139C182.651 10.691 183.851 11.8592 184.73 13.3461C185.61 14.8329 186.05 16.4923 186.05 18.3243C186.05 20.1829 185.61 21.8689 184.73 23.3823C183.851 24.8691 182.651 26.0506 181.132 26.9268C179.639 27.803 177.973 28.241 176.134 28.241ZM176.134 24.7762C177.333 24.7762 178.399 24.4974 179.332 23.9398C180.265 23.3823 180.998 22.6256 181.531 21.6697C182.065 20.6874 182.331 19.5722 182.331 18.3243C182.331 17.103 182.051 16.0144 181.491 15.0586C180.958 14.1028 180.225 13.3594 179.292 12.8283C178.386 12.2708 177.333 11.992 176.134 11.992C174.934 11.992 173.868 12.2708 172.935 12.8283C172.002 13.3594 171.269 14.1028 170.736 15.0586C170.203 16.0144 169.936 17.103 169.936 18.3243C169.936 19.5722 170.203 20.6874 170.736 21.6697C171.269 22.6256 172.002 23.3823 172.935 23.9398C173.868 24.4974 174.934 24.7762 176.134 24.7762Z" fill="black"/>
</svg>
